<?xml version="1.0" encoding="UTF-8"?><svg id="a" xmlns="http://www.w3.org/2000/svg" viewBox="0 0 600 124.44"><defs><style>.b{fill-rule:evenodd;}.b,.c{fill:#0e0811;}</style></defs><path class="b" d="M600,45.25h-35.71v56.56h-11.9V0h11.9v33.93h35.71v11.32Z"/><path class="c" d="M533.28,33.93h-47.09c-6.5,0-13.15,5.86-13.15,12.04v44.76c0,6.19,6.65,11.08,13.15,11.08h46.36v-11.31h-47.61v-11.31h48.34c6.51,0,11.18-4.92,11.18-11.11v-22.11c-.01-6.18-4.67-12.04-11.18-12.04M532.55,67.88h-47.61v-22.64h47.61v22.64ZM454.79,33.93h-47.09c-6.5,0-10.04,5.86-10.04,12.04v44.76c0,6.19,3.54,11.08,10.04,11.08h45.51v11.32h-43.64v11.32h45.23c6.51,0,10.31-5.41,10.31-11.59V45.98c0-6.18-3.8-12.04-10.31-12.04M453.2,90.5h-43.64v-45.24h43.64v45.24ZM376.86,0v33.93h-45.95c-6.5,0-13.57,5.86-13.57,12.04v44.49c0,6.18,7.07,11.34,13.57,11.34h57.86V0h-11.91ZM376.86,90.5h-47.61v-45.26h47.61v45.26ZM298.21,33.93h-35.32c-13.01,0-24.89,10.88-24.89,23.24v33.57c0,6.19,6.62,11.08,13.12,11.08h20.78c10.46,0,21.65-4.21,25.62-11.08v11.08h11.9v-55.84c0-6.18-4.7-12.04-11.2-12.04M297.52,90.51h-47.61v-33.33c0-6.19,6.48-11.92,12.99-11.92h34.62v45.25ZM218.4,33.93h-47.09c-6.5,0-12.67,5.86-12.67,12.04v44.49c0,6.19,6.16,11.35,12.67,11.35h46.84v11.32h-47.61v11.32h47.86c6.51,0,11.65-5.14,11.65-11.32V45.98c0-6.18-5.14-12.04-11.64-12.04M218.16,90.5h-47.61v-45.24h47.61v45.24Z"/><path class="b" d="M126.84,33.93c13,0,23.87,10.88,23.87,23.24v44.64h-11.9v-44.64c0-6.19-5.47-11.92-11.97-11.92h-35.64v56.56h-11.91v-55.84c0-6.19,5.72-12.04,12.22-12.04h35.32Z"/><path class="c" d="M58.8,33.93H11.71c-6.09,0-11.1,5.16-11.71,10.89v47.05c.6,5.63,5.62,9.93,11.71,9.93h47.74v-11.31H11.84v-11.31h46.96c6.5,0,12.55-4.92,12.55-11.11v-22.11c0-6.18-6.05-12.04-12.56-12.04M59.45,67.88H11.84v-22.64h47.6v22.63h0Z"/></svg>