<svg xmlns="http://www.w3.org/2000/svg" width="60" height="60" viewBox="-44.35477006435394 -44.5192985534668 1113.6882934570312 1115.417236328125" class="colorable-icon reset-top-left-margin" data-export-recolorable-svg="true" overflow="visible" xmlns:xlink="http://www.w3.org/1999/xlink" fill="rgb(0, 0, 0)" stroke="none" preserveAspectRatio="xMidYMid meet"><g fill="none" stroke="url(&quot;#theme-accent-gradient-linear&quot;) rgb(218, 27, 46)" stroke-width="45" stroke-linecap="round" stroke-linejoin="round"><path d="M 106.45,627.26 C 84.78,586.91 66.4,546.64 48.93,501.11 C 35.63,459.85 22.76,411.06 12.57,361.44 Q 5.92,317.93 1.95,269.99" data-line="nan" stroke-width="45.0" fill="none" stroke="url(&quot;#theme-accent-gradient-linear&quot;) rgb(218, 27, 46)"/><path d="M 501.96,888.83 C 470.57,908.24 457.44,915.4 443.11,920.39 C 437.39,921.4 429.79,921.45 420.4,919.27 C 405.88,912.79 349.3,877.82 310.48,850.57 C 273.23,821.33 237.81,790.24 206.07,759.15 C 178.55,728.66 153.75,697.72 127.32,660.6 L 106.45,627.26" data-line="nan" stroke-width="45.0" fill="none" stroke="url(&quot;#theme-accent-gradient-linear&quot;) rgb(218, 27, 46)"/><path d="M 1006.49,718.01 C 992.83,711.2 978.79,707.86 959.19,706.97 L 912.27,706.92" data-line="nan" stroke-width="45.0" fill="none" stroke="url(&quot;#theme-accent-gradient-linear&quot;) rgb(218, 27, 46)"/><path d="M 660.77,706.99 C 611.15,707.96 600.06,710.34 588.35,715.36" data-line="nan" stroke-width="45.0" fill="none" stroke="url(&quot;#theme-accent-gradient-linear&quot;) rgb(218, 27, 46)"/><path d="M 1006.49,718.01 C 1017.74,733.77 1020.32,739.42 1022.81,747.95 Q 1023.96,759.2 1023.98,804.24" data-line="nan" stroke-width="45.0" fill="none" stroke="url(&quot;#theme-accent-gradient-linear&quot;) rgb(218, 27, 46)"/><path d="M 937.0,649.59 C 935.93,634.13 933.0,617.38 928.95,604.02 C 922.78,589.71 916.04,577.88 907.05,565.46 C 895.22,552.51 883.81,542.58 870.85,533.46 C 856.92,525.78 842.18,519.69 826.43,515.17 C 811.34,512.76 795.16,512.0 779.0,513.09 C 765.05,515.21 751.12,518.79 737.19,523.94 C 723.15,530.89 709.26,539.82 698.03,548.89 C 686.95,559.98 677.83,571.28 670.48,582.52 C 664.69,593.57 660.06,604.77 656.58,615.97 C 653.76,629.87 652.36,649.4 652.3,707.07" data-line="nan" stroke-width="45.0" fill="none" stroke="url(&quot;#theme-accent-gradient-linear&quot;) rgb(218, 27, 46)"/><path d="M 1.95,269.99 C 0.0,236.93 0.44,221.81 1.93,206.59 C 4.1,194.59 7.22,184.2 12.45,172.21 C 17.68,163.74 25.33,154.16 30.89,148.8 C 40.45,141.42 46.32,137.95 58.18,132.51 L 108.86,113.73" data-line="nan" stroke-width="45.0" fill="none" stroke="url(&quot;#theme-accent-gradient-linear&quot;) rgb(218, 27, 46)"/><path d="M 388.26,10.9 C 420.33,1.25 432.75,0.0 442.32,0.61 Q 452.05,2.51 477.49,10.78" data-line="nan" stroke-width="45.0" fill="none" stroke="url(&quot;#theme-accent-gradient-linear&quot;) rgb(218, 27, 46)"/><path d="M 623.23,1023.93 C 609.17,1022.96 598.05,1019.59 586.89,1013.06 C 576.66,1002.93 571.26,994.41 567.23,983.21 Q 566.12,975.0 565.99,949.69" data-line="nan" stroke-width="45.0" fill="none" stroke="url(&quot;#theme-accent-gradient-linear&quot;) rgb(218, 27, 46)"/><path d="M 566.08,755.49 C 567.97,744.43 572.61,733.41 578.42,725.1 L 588.35,715.36" data-line="nan" stroke-width="45.0" fill="none" stroke="url(&quot;#theme-accent-gradient-linear&quot;) rgb(218, 27, 46)"/><circle cx="796.1092077013135" cy="867.5194406618082" r="89.06461039905685" data-line="3.0" stroke-width="45.0" fill="none" stroke="url(&quot;#theme-accent-gradient-linear&quot;) rgb(218, 27, 46)"/><path d="M 912.27,706.92 L 660.77,706.99" data-line="8.0" stroke-width="45.0" fill="none" stroke="url(&quot;#theme-accent-gradient-linear&quot;) rgb(218, 27, 46)"/><path d="M 807.5575247874293,132.38511520884413 A 89.4924523223747,89.4924523223747 0 0,1 864.8312558435329,234.28137190758463" data-line="11.0" stroke-width="45.0" fill="none" stroke="url(&quot;#theme-accent-gradient-linear&quot;) rgb(218, 27, 46)"/><path d="M 1023.98,804.24 L 1023.9,967.52" data-line="11.0" stroke-width="45.0" fill="none" stroke="url(&quot;#theme-accent-gradient-linear&quot;) rgb(218, 27, 46)"/><path d="M 866.11,234.54 C 865.4645781674927,304.5758382442856 858.4771671844699,361.44441831670713 833.61,451.34" data-line="12.0" stroke-width="45.0" fill="none" stroke="url(&quot;#theme-accent-gradient-linear&quot;) rgb(218, 27, 46)"/><path d="M 937.23,706.88 L 937.0,649.59" data-line="12.0" stroke-width="45.0" fill="none" stroke="url(&quot;#theme-accent-gradient-linear&quot;) rgb(218, 27, 46)"/><path d="M 1023.9,967.52 C 1029.6850159806218,1007.4299442669313 976.1641716865788,1033.3258508252043 946.99,1023.99" data-line="13.0" stroke-width="45.0" fill="none" stroke="url(&quot;#theme-accent-gradient-linear&quot;) rgb(218, 27, 46)"/><path d="M 946.99,1023.99 L 623.23,1023.93" data-line="14.0" stroke-width="45.0" fill="none" stroke="url(&quot;#theme-accent-gradient-linear&quot;) rgb(218, 27, 46)"/><path d="M 108.86,113.73 L 388.26,10.9" data-line="15.0" stroke-width="45.0" fill="none" stroke="url(&quot;#theme-accent-gradient-linear&quot;) rgb(218, 27, 46)"/><path d="M 477.49,10.78 L 807.44,132.71" data-line="17.0" stroke-width="45.0" fill="none" stroke="url(&quot;#theme-accent-gradient-linear&quot;) rgb(218, 27, 46)"/><path d="M 565.99,949.69 L 566.08,755.49" data-line="19.0" stroke-width="45.0" fill="none" stroke="url(&quot;#theme-accent-gradient-linear&quot;) rgb(218, 27, 46)"/></g></svg>