<svg xmlns="http://www.w3.org/2000/svg" xmlns:xlink="http://www.w3.org/1999/xlink" xmlns:inkscape="http://www.inkscape.org/namespaces/inkscape" version="1.1" width="432" height="288" viewBox="0 0 432 288">
<defs>
<clipPath id="clip_1">
<path transform="matrix(1,0,0,-1,0,288)" d="M54 36H388.8V253.44H54Z"/>
</clipPath>
<g id="font_2_49">
<path transform="matrix(.001,0,0,.001,0,0)" d="M124 83H285V639L110 604V694L284 729H383V83H544V0H124V83"/>
</g>
<g id="font_2_46">
<path transform="matrix(.001,0,0,.001,0,0)" d="M107 124H210V0H107V124"/>
</g>
<g id="font_2_48">
<path transform="matrix(.001,0,0,.001,0,0)" d="M318 664C267 664 229 639 203 589 177 539 165 464 165 364 165 264 177 189 203 139 229 89 267 64 318 64 369 64 407 89 433 139 458 189 471 264 471 364 471 464 458 539 433 589 407 639 369 664 318 664M318 742C399 742 461 709 505 645 548 580 570 486 570 364 570 241 548 147 505 83 461 19 399-13 318-13 236-13 173 19 130 83 87 147 66 241 66 364 66 486 87 580 130 645 173 709 236 742 318 742"/>
</g>
<clipPath id="clip_3">
<path transform="matrix(1,0,0,-1,0,288)" d="M54 36H388.8V253.44H54Z"/>
</clipPath>
<g id="font_2_53">
<path transform="matrix(.001,0,0,.001,0,0)" d="M108 729H495V646H198V467C212 472 227 476 241 478 255 480 270 482 284 482 365 482 429 459 477 415 525 370 549 310 549 234 549 155 524 94 475 51 426 8 357-13 269-13 238-13 207-10 175-6 143-1 111 6 77 17V116C106 100 136 88 168 80 199 72 232 69 267 69 323 69 368 83 401 113 433 143 450 183 450 234 450 284 433 324 401 354 368 384 323 399 267 399 241 399 214 396 188 390 162 384 135 375 108 363V729"/>
</g>
<clipPath id="clip_4">
<path transform="matrix(1,0,0,-1,0,288)" d="M54 36H388.8V253.44H54Z"/>
</clipPath>
<g id="font_2_50">
<path transform="matrix(.001,0,0,.001,0,0)" d="M192 83H536V0H73V83C110 121 161 173 226 239 290 304 331 346 348 365 380 400 402 430 414 455 426 479 433 504 433 528 433 566 419 598 392 622 365 646 330 659 286 659 255 659 222 653 188 643 154 632 117 616 78 594V694C118 710 155 722 189 730 223 738 255 742 284 742 359 742 419 723 464 685 509 647 532 597 532 534 532 504 526 475 515 449 504 422 484 390 454 354 446 344 420 317 376 272 332 227 271 164 192 83"/>
</g>
<clipPath id="clip_5">
<path transform="matrix(1,0,0,-1,0,288)" d="M54 36H388.8V253.44H54Z"/>
</clipPath>
<clipPath id="clip_6">
<path transform="matrix(1,0,0,-1,0,288)" d="M54 36H388.8V253.44H54Z"/>
</clipPath>
<g id="font_2_51">
<path transform="matrix(.001,0,0,.001,0,0)" d="M406 393C453 383 490 362 516 330 542 298 556 258 556 212 556 140 531 84 482 45 432 6 362-13 271-13 240-13 208-10 176-4 144 1 110 10 76 22V117C103 101 133 89 166 81 198 73 232 69 268 69 330 69 377 81 409 105 441 129 458 165 458 212 458 254 443 288 413 312 383 336 341 349 287 349H202V430H291C339 430 376 439 402 459 428 478 441 506 441 543 441 580 427 609 401 629 374 649 336 659 287 659 260 659 231 656 200 650 169 644 135 635 98 623V711C135 721 170 729 203 734 235 739 266 742 296 742 370 742 429 725 473 691 517 657 539 611 539 553 539 513 527 479 504 451 481 423 448 403 406 393"/>
</g>
<clipPath id="clip_7">
<path transform="matrix(1,0,0,-1,0,288)" d="M54 36H388.8V253.44H54Z"/>
</clipPath>
<clipPath id="clip_8">
<path transform="matrix(1,0,0,-1,0,288)" d="M54 36H388.8V253.44H54Z"/>
</clipPath>
<g id="font_2_52">
<path transform="matrix(.001,0,0,.001,0,0)" d="M378 643 129 254H378V643M352 729H476V254H580V172H476V0H378V172H49V267L352 729"/>
</g>
<g id="font_2_68">
<path transform="matrix(.001,0,0,.001,0,0)" d="M197 648V81H316C416 81 490 103 537 149 583 195 607 267 607 365 607 463 583 534 537 580 490 625 416 648 316 648H197M98 729H301C442 729 546 699 612 641 678 582 711 490 711 365 711 239 677 147 611 88 545 29 441 0 301 0H98V729"/>
</g>
<g id="font_2_101">
<path transform="matrix(.001,0,0,.001,0,0)" d="M562 296V252H149C153 190 171 142 205 110 238 78 284 62 344 62 378 62 412 66 444 74 476 82 509 95 541 113V28C509 14 476 3 442-3 408-9 373-13 339-13 251-13 182 12 131 62 80 112 55 181 55 268 55 357 79 428 127 481 175 533 241 560 323 560 397 560 455 536 498 489 540 441 562 377 562 296M472 322C471 371 457 410 431 440 404 469 368 484 324 484 274 484 234 469 204 441 174 413 156 373 152 322H472"/>
</g>
<g id="font_2_98">
<path transform="matrix(.001,0,0,.001,0,0)" d="M487 273C487 339 473 390 446 428 418 466 381 485 334 485 286 485 249 466 222 428 194 390 181 339 181 273 181 207 194 155 222 117 249 79 286 61 334 61 381 61 418 79 446 117 473 155 487 207 487 273M181 464C199 496 223 520 252 536 281 552 316 560 356 560 422 560 476 533 518 481 559 428 580 359 580 273 580 187 559 117 518 65 476 13 422-13 356-13 316-13 281-5 252 10 223 25 199 49 181 82V0H91V760H181V464"/>
</g>
<g id="font_2_97">
<path transform="matrix(.001,0,0,.001,0,0)" d="M343 275C270 275 220 266 192 250 164 233 150 205 150 165 150 133 160 107 181 89 202 70 231 61 267 61 317 61 357 78 387 114 417 149 432 196 432 255V275H343M522 312V0H432V83C411 49 385 25 355 10 325-5 287-13 243-13 187-13 142 2 109 33 76 64 60 106 60 159 60 220 80 266 122 298 163 329 224 345 306 345H432V354C432 395 418 427 391 450 364 472 326 484 277 484 245 484 215 480 185 472 155 464 127 453 100 439V522C132 534 164 544 195 550 226 556 256 560 286 560 365 560 424 539 463 498 502 457 522 395 522 312"/>
</g>
<g id="font_2_116">
<path transform="matrix(.001,0,0,.001,0,0)" d="M183 702V547H368V477H183V180C183 135 189 106 201 94 213 81 238 75 276 75H368V0H276C206 0 158 13 132 39 106 65 93 112 93 180V477H27V547H93V702H183"/>
</g>
<g id="font_2_32">
</g>
<g id="font_2_82">
<path transform="matrix(.001,0,0,.001,0,0)" d="M444 342C465 334 486 319 506 296 526 272 546 240 566 199L666 0H560L467 187C443 235 419 268 397 284 374 300 343 308 304 308H197V0H98V729H321C404 729 466 711 507 677 548 642 569 589 569 519 569 473 558 434 537 404 515 374 484 353 444 342M197 648V389H321C368 389 404 400 428 422 452 444 465 476 465 519 465 561 452 593 428 615 404 637 368 648 321 648H197"/>
</g>
<g id="font_2_111">
<path transform="matrix(.001,0,0,.001,0,0)" d="M306 484C258 484 220 465 192 427 164 389 150 338 150 273 150 207 163 156 191 118 219 80 257 62 306 62 354 62 392 80 420 118 448 156 462 207 462 273 462 337 448 389 420 427 392 465 354 484 306 484M306 560C384 560 445 534 490 484 534 433 557 363 557 273 557 183 534 113 490 63 445 12 384-13 306-13 227-13 165 12 121 63 77 113 55 183 55 273 55 363 77 433 121 484 165 534 227 560 306 560"/>
</g>
<g id="font_2_117">
<path transform="matrix(.001,0,0,.001,0,0)" d="M85 216V547H175V219C175 167 185 129 205 103 225 77 255 64 296 64 344 64 383 79 411 110 439 141 453 183 453 237V547H543V0H453V84C431 50 405 26 377 10 348-5 315-13 277-13 214-13 166 6 134 45 101 83 85 140 85 216M311 560V560"/>
</g>
<g id="font_2_110">
<path transform="matrix(.001,0,0,.001,0,0)" d="M549 330V0H459V327C459 379 448 417 428 443 408 469 378 482 338 482 289 482 251 466 223 435 195 404 181 362 181 309V0H91V547H181V462C202 494 227 519 257 535 286 551 320 560 358 560 420 560 468 540 500 501 532 462 549 405 549 330"/>
</g>
<g id="font_2_100">
<path transform="matrix(.001,0,0,.001,0,0)" d="M454 464V760H544V0H454V82C435 49 411 25 382 10 353-5 319-13 279-13 213-13 159 13 117 65 75 117 55 187 55 273 55 359 75 428 117 481 159 533 213 560 279 560 319 560 353 552 382 536 411 520 435 496 454 464M148 273C148 207 161 155 188 117 215 79 253 61 301 61 348 61 385 79 413 117 440 155 454 207 454 273 454 339 440 390 413 428 385 466 348 485 301 485 253 485 215 466 188 428 161 390 148 339 148 273"/>
</g>
<g id="font_2_115">
<path transform="matrix(.001,0,0,.001,0,0)" d="M443 531V446C417 458 391 468 364 475 336 481 308 485 279 485 234 485 200 478 178 464 156 450 145 430 145 403 145 382 153 366 169 354 185 342 217 330 265 320L296 313C360 299 405 279 432 255 458 230 472 195 472 151 472 100 452 60 412 31 372 1 316-13 246-13 216-13 186-10 154-5 122 0 89 8 54 20V113C87 95 120 82 152 74 184 65 216 61 248 61 290 61 323 68 346 82 368 96 380 117 380 144 380 168 371 187 355 200 339 213 303 226 247 238L216 245C160 257 119 275 95 299 70 323 58 356 58 399 58 450 76 490 112 518 148 546 200 560 268 560 301 560 332 557 362 552 391 547 418 540 443 531"/>
</g>
<clipPath id="clip_9">
<path transform="matrix(1,0,0,-1,0,288)" d="M54 36H388.8V253.44H54Z"/>
</clipPath>
<g id="font_2_54">
<path transform="matrix(.001,0,0,.001,0,0)" d="M330 404C286 404 251 388 225 358 199 328 186 286 186 234 186 181 199 139 225 109 251 79 286 64 330 64 374 64 409 79 435 109 461 139 474 181 474 234 474 286 461 328 435 358 409 388 374 404 330 404M526 713V623C501 635 476 644 451 650 425 656 400 659 376 659 310 659 260 637 226 593 192 549 172 482 168 394 187 422 211 444 240 459 269 474 301 482 336 482 409 482 467 459 509 415 551 371 573 310 573 234 573 159 550 99 506 54 462 9 403-13 330-13 246-13 181 19 137 83 92 147 70 241 70 364 70 479 97 571 152 639 206 707 280 742 372 742 396 742 421 739 447 735 472 730 498 723 526 713"/>
</g>
<clipPath id="clip_10">
<path transform="matrix(1,0,0,-1,0,288)" d="M54 36H388.8V253.44H54Z"/>
</clipPath>
<g id="font_2_55">
<path transform="matrix(.001,0,0,.001,0,0)" d="M82 729H551V687L286 0H183L432 646H82V729"/>
</g>
<clipPath id="clip_11">
<path transform="matrix(1,0,0,-1,0,288)" d="M54 36H388.8V253.44H54Z"/>
</clipPath>
<clipPath id="clip_12">
<path transform="matrix(1,0,0,-1,0,288)" d="M54 36H388.8V253.44H54Z"/>
</clipPath>
<g id="font_2_56">
<path transform="matrix(.001,0,0,.001,0,0)" d="M318 346C271 346 234 333 207 308 180 283 167 249 167 205 167 161 180 126 207 101 234 76 271 64 318 64 364 64 401 76 428 102 455 127 469 161 469 205 469 249 455 283 429 308 402 333 365 346 318 346M219 388C177 398 144 418 120 447 96 476 85 511 85 553 85 611 105 657 147 691 188 725 245 742 318 742 390 742 447 725 489 691 530 657 551 611 551 553 551 511 539 476 515 447 491 418 459 398 417 388 464 377 501 355 528 323 554 291 568 251 568 205 568 134 546 80 503 43 459 5 398-13 318-13 237-13 175 5 132 43 89 80 68 134 68 205 68 251 81 291 108 323 134 355 171 377 219 388M183 544C183 506 194 476 218 455 242 434 275 424 318 424 360 424 393 434 417 455 441 476 453 506 453 544 453 582 441 611 417 632 393 653 360 664 318 664 275 664 242 653 218 632 194 611 183 582 183 544"/>
</g>
<clipPath id="clip_13">
<path transform="matrix(1,0,0,-1,0,288)" d="M54 36H388.8V253.44H54Z"/>
</clipPath>
<clipPath id="clip_14">
<path transform="matrix(1,0,0,-1,0,288)" d="M54 36H388.8V253.44H54Z"/>
</clipPath>
<g id="font_2_57">
<path transform="matrix(.001,0,0,.001,0,0)" d="M110 15V105C134 93 159 84 185 78 210 72 235 69 260 69 324 69 374 90 408 134 442 178 462 244 468 334 448 306 424 284 396 269 367 254 335 247 300 247 226 247 168 269 126 313 84 357 63 417 63 494 63 568 85 628 129 674 173 719 232 742 306 742 390 742 455 709 499 645 543 580 566 486 566 364 566 248 538 157 484 89 429 21 356-13 264-13 239-13 214-10 189-6 163-2 137 5 110 15M306 324C350 324 385 339 411 369 437 399 450 441 450 494 450 546 437 588 411 618 385 648 350 664 306 664 262 664 227 648 201 618 175 588 162 546 162 494 162 441 175 399 201 369 227 339 262 324 306 324"/>
</g>
<clipPath id="clip_15">
<path transform="matrix(1,0,0,-1,0,288)" d="M54 36H388.8V253.44H54Z"/>
</clipPath>
<g id="font_2_67">
<path transform="matrix(.001,0,0,.001,0,0)" d="M644 673V569C610 599 575 622 537 638 499 653 460 661 418 661 334 661 270 635 226 584 182 533 160 460 160 364 160 268 182 194 226 143 270 92 334 67 418 67 460 67 499 74 537 90 575 105 610 128 644 159V56C609 32 572 15 534 4 496-7 455-13 412-13 302-13 215 20 151 87 87 154 56 246 56 364 56 481 87 573 151 641 215 708 302 742 412 742 456 742 497 736 535 725 573 713 610 696 644 673"/>
</g>
<clipPath id="clip_16">
<path transform="matrix(1,0,0,-1,0,288)" d="M54 36H388.8V253.44H54Z"/>
</clipPath>
<clipPath id="clip_17">
<path transform="matrix(1,0,0,-1,69.218189,242.11637)" d="M-3.5-3.5H3.5V3.5H-3.5Z"/>
</clipPath>
<clipPath id="clip_18">
<path transform="matrix(1,0,0,-1,170.67273,83.865558)" d="M-3.5-3.5H3.5V3.5H-3.5Z"/>
</clipPath>
<clipPath id="clip_19">
<path transform="matrix(1,0,0,-1,272.12727,48.385835)" d="M-3.5-3.5H3.5V3.5H-3.5Z"/>
</clipPath>
<clipPath id="clip_20">
<path transform="matrix(1,0,0,-1,373.5818,44.44364)" d="M-3.5-3.5H3.5V3.5H-3.5Z"/>
</clipPath>
<clipPath id="clip_21">
<path transform="matrix(1,0,0,-1,0,288)" d="M54 36H388.8V253.44H54Z"/>
</clipPath>
<clipPath id="clip_22">
<path transform="matrix(1,0,0,-1,69.218189,224.65808)" d="M-3.5-3.5H3.5V3.5H-3.5Z"/>
</clipPath>
<clipPath id="clip_23">
<path transform="matrix(1,0,0,-1,170.67273,89.49724)" d="M-3.5-3.5H3.5V3.5H-3.5Z"/>
</clipPath>
<clipPath id="clip_24">
<path transform="matrix(1,0,0,-1,272.12727,68.65994)" d="M-3.5-3.5H3.5V3.5H-3.5Z"/>
</clipPath>
<clipPath id="clip_25">
<path transform="matrix(1,0,0,-1,373.5818,66.97043)" d="M-3.5-3.5H3.5V3.5H-3.5Z"/>
</clipPath>
<g id="font_2_118">
<path transform="matrix(.001,0,0,.001,0,0)" d="M30 547H125L296 88 467 547H562L357 0H235L30 547"/>
</g>
<g id="font_2_78">
<path transform="matrix(.001,0,0,.001,0,0)" d="M98 729H231L554 119V729H650V0H517L194 610V0H98V729"/>
</g>
<g id="font_2_109">
<path transform="matrix(.001,0,0,.001,0,0)" d="M520 442C542 482 569 511 600 531 631 550 668 560 711 560 767 560 811 540 842 500 873 460 889 403 889 330V0H799V327C799 379 789 418 771 444 752 469 724 482 686 482 639 482 602 466 575 435 548 404 535 362 535 309V0H445V327C445 379 435 418 417 444 398 469 369 482 331 482 285 482 248 466 221 435 194 404 181 362 181 309V0H91V547H181V462C201 495 226 520 255 536 283 552 317 560 357 560 397 560 430 550 458 530 486 510 506 480 520 442"/>
</g>
<g id="font_2_114">
<path transform="matrix(.001,0,0,.001,0,0)" d="M411 463C401 469 390 473 378 476 366 478 353 480 339 480 288 480 249 463 222 430 194 397 181 350 181 288V0H91V547H181V462C199 495 224 520 254 536 284 552 321 560 365 560 371 560 378 559 386 559 393 558 401 557 411 555V463"/>
</g>
<g id="font_2_102">
<path transform="matrix(.001,0,0,.001,0,0)" d="M371 760V685H285C253 685 230 678 218 665 205 652 199 629 199 595V547H347V477H199V0H109V477H23V547H109V585C109 645 123 690 151 718 179 746 224 760 286 760H371"/>
</g>
<g id="font_2_105">
<path transform="matrix(.001,0,0,.001,0,0)" d="M94 547H184V0H94V547M94 760H184V646H94V760"/>
</g>
<g id="font_2_103">
<path transform="matrix(.001,0,0,.001,0,0)" d="M454 280C454 344 440 395 414 431 387 467 349 485 301 485 253 485 215 467 188 431 161 395 148 344 148 280 148 215 161 165 188 129 215 93 253 75 301 75 349 75 387 93 414 129 440 165 454 215 454 280M544 68C544-24 523-93 482-139 440-184 377-207 292-207 260-207 231-204 203-200 175-195 147-188 121-178V-91C147-105 173-115 199-122 225-129 251-133 278-133 336-133 380-117 410-87 439-56 454-10 454 52V96C435 64 411 40 382 24 353 8 319 0 279 0 211 0 157 25 116 76 75 127 55 195 55 280 55 364 75 432 116 483 157 534 211 560 279 560 319 560 353 552 382 536 411 520 435 496 454 464V547H544V68"/>
</g>
<g id="font_2_65">
<path transform="matrix(.001,0,0,.001,0,0)" d="M342 632 208 269H476L342 632M286 729H398L676 0H573L507 187H178L112 0H8L286 729"/>
</g>
<g id="font_2_83">
<path transform="matrix(.001,0,0,.001,0,0)" d="M535 705V609C497 627 462 640 429 649 395 657 363 662 333 662 279 662 237 651 208 631 179 610 165 580 165 542 165 510 174 485 194 469 213 452 250 439 304 429L364 417C437 403 491 378 526 343 561 307 579 260 579 201 579 130 555 77 508 41 460 5 391-13 300-13 265-13 228-9 189-2 150 5 110 16 69 32V134C109 111 148 94 186 83 224 71 262 66 300 66 356 66 399 77 430 99 460 121 476 152 476 194 476 230 465 258 443 278 421 298 385 313 335 323L275 335C201 349 148 372 115 404 82 435 66 478 66 534 66 598 88 649 134 686 179 723 242 742 322 742 356 742 390 739 426 733 461 727 497 717 535 705"/>
</g>
<g id="font_2_104">
<path transform="matrix(.001,0,0,.001,0,0)" d="M549 330V0H459V327C459 379 448 417 428 443 408 469 378 482 338 482 289 482 251 466 223 435 195 404 181 362 181 309V0H91V760H181V462C202 494 227 519 257 535 286 551 320 560 358 560 420 560 468 540 500 501 532 462 549 405 549 330"/>
</g>
<g id="font_2_80">
<path transform="matrix(.001,0,0,.001,0,0)" d="M197 648V374H321C367 374 402 385 427 409 452 433 465 467 465 511 465 555 452 588 427 612 402 636 367 648 321 648H197M98 729H321C402 729 464 710 506 673 548 636 569 582 569 511 569 439 548 384 506 348 464 311 402 293 321 293H197V0H98V729"/>
</g>
<g id="font_2_112">
<path transform="matrix(.001,0,0,.001,0,0)" d="M181 82V-207H91V547H181V464C199 496 223 520 252 536 281 552 316 560 356 560 422 560 476 533 518 481 559 428 580 359 580 273 580 187 559 117 518 65 476 13 422-13 356-13 316-13 281-5 252 10 223 25 199 49 181 82M487 273C487 339 473 390 446 428 418 466 381 485 334 485 286 485 249 466 222 428 194 390 181 339 181 273 181 207 194 155 222 117 249 79 286 61 334 61 381 61 418 79 446 117 473 155 487 207 487 273"/>
</g>
<g id="font_2_76">
<path transform="matrix(.001,0,0,.001,0,0)" d="M98 729H197V83H552V0H98V729"/>
</g>
</defs>
<g>
<path transform="matrix(1,0,0,-1,0,288)" d="M0 0H432V288H0Z" fill="#ffffff"/>
<path transform="matrix(1,0,0,-1,0,288)" d="M54 36H388.8V253.44H54Z" fill="#ffffff"/>
<g clip-path="url(#clip_1)">
<path transform="matrix(1,0,0,-1,0,288)" stroke-width=".8" stroke-linecap="square" stroke-linejoin="round" fill="none" stroke="#d3d3d3" d="M69.218189 36V253.44"/>
</g>
<path transform="matrix(1,0,0,-1,0,288)" d="M69.218189 36V32.5"/>
<path transform="matrix(1,0,0,-1,0,288)" stroke-width=".8" stroke-linecap="butt" stroke-linejoin="round" fill="none" stroke="#000000" d="M69.218189 36V32.5"/>
<use data-text="1" xlink:href="#font_2_49" transform="matrix(13,0,0,-13,58.882246,268.875)"/>
<use data-text="." xlink:href="#font_2_46" transform="matrix(13,0,0,-13,67.150249,268.875)"/>
<use data-text="0" xlink:href="#font_2_48" transform="matrix(13,0,0,-13,71.28425,268.875)"/>
<g clip-path="url(#clip_3)">
<path transform="matrix(1,0,0,-1,0,288)" stroke-width=".8" stroke-linecap="square" stroke-linejoin="round" fill="none" stroke="#d3d3d3" d="M119.94546 36V253.44"/>
</g>
<path transform="matrix(1,0,0,-1,0,288)" d="M119.94546 36V32.5"/>
<path transform="matrix(1,0,0,-1,0,288)" stroke-width=".8" stroke-linecap="butt" stroke-linejoin="round" fill="none" stroke="#000000" d="M119.94546 36V32.5"/>
<use data-text="1" xlink:href="#font_2_49" transform="matrix(13,0,0,-13,109.60952,268.875)"/>
<use data-text="." xlink:href="#font_2_46" transform="matrix(13,0,0,-13,117.87752,268.875)"/>
<use data-text="5" xlink:href="#font_2_53" transform="matrix(13,0,0,-13,122.01152,268.875)"/>
<g clip-path="url(#clip_4)">
<path transform="matrix(1,0,0,-1,0,288)" stroke-width=".8" stroke-linecap="square" stroke-linejoin="round" fill="none" stroke="#d3d3d3" d="M170.67273 36V253.44"/>
</g>
<path transform="matrix(1,0,0,-1,0,288)" d="M170.67273 36V32.5"/>
<path transform="matrix(1,0,0,-1,0,288)" stroke-width=".8" stroke-linecap="butt" stroke-linejoin="round" fill="none" stroke="#000000" d="M170.67273 36V32.5"/>
<use data-text="2" xlink:href="#font_2_50" transform="matrix(13,0,0,-13,160.33679,268.875)"/>
<use data-text="." xlink:href="#font_2_46" transform="matrix(13,0,0,-13,168.6048,268.875)"/>
<use data-text="0" xlink:href="#font_2_48" transform="matrix(13,0,0,-13,172.7388,268.875)"/>
<g clip-path="url(#clip_5)">
<path transform="matrix(1,0,0,-1,0,288)" stroke-width=".8" stroke-linecap="square" stroke-linejoin="round" fill="none" stroke="#d3d3d3" d="M221.4 36V253.44"/>
</g>
<path transform="matrix(1,0,0,-1,0,288)" d="M221.4 36V32.5"/>
<path transform="matrix(1,0,0,-1,0,288)" stroke-width=".8" stroke-linecap="butt" stroke-linejoin="round" fill="none" stroke="#000000" d="M221.4 36V32.5"/>
<use data-text="2" xlink:href="#font_2_50" transform="matrix(13,0,0,-13,211.06406,268.875)"/>
<use data-text="." xlink:href="#font_2_46" transform="matrix(13,0,0,-13,219.33206,268.875)"/>
<use data-text="5" xlink:href="#font_2_53" transform="matrix(13,0,0,-13,223.46607,268.875)"/>
<g clip-path="url(#clip_6)">
<path transform="matrix(1,0,0,-1,0,288)" stroke-width=".8" stroke-linecap="square" stroke-linejoin="round" fill="none" stroke="#d3d3d3" d="M272.12727 36V253.44"/>
</g>
<path transform="matrix(1,0,0,-1,0,288)" d="M272.12727 36V32.5"/>
<path transform="matrix(1,0,0,-1,0,288)" stroke-width=".8" stroke-linecap="butt" stroke-linejoin="round" fill="none" stroke="#000000" d="M272.12727 36V32.5"/>
<use data-text="3" xlink:href="#font_2_51" transform="matrix(13,0,0,-13,261.79133,268.875)"/>
<use data-text="." xlink:href="#font_2_46" transform="matrix(13,0,0,-13,270.05934,268.875)"/>
<use data-text="0" xlink:href="#font_2_48" transform="matrix(13,0,0,-13,274.19334,268.875)"/>
<g clip-path="url(#clip_7)">
<path transform="matrix(1,0,0,-1,0,288)" stroke-width=".8" stroke-linecap="square" stroke-linejoin="round" fill="none" stroke="#d3d3d3" d="M322.85456 36V253.44"/>
</g>
<path transform="matrix(1,0,0,-1,0,288)" d="M322.85456 36V32.5"/>
<path transform="matrix(1,0,0,-1,0,288)" stroke-width=".8" stroke-linecap="butt" stroke-linejoin="round" fill="none" stroke="#000000" d="M322.85456 36V32.5"/>
<use data-text="3" xlink:href="#font_2_51" transform="matrix(13,0,0,-13,312.51863,268.875)"/>
<use data-text="." xlink:href="#font_2_46" transform="matrix(13,0,0,-13,320.78663,268.875)"/>
<use data-text="5" xlink:href="#font_2_53" transform="matrix(13,0,0,-13,324.92063,268.875)"/>
<g clip-path="url(#clip_8)">
<path transform="matrix(1,0,0,-1,0,288)" stroke-width=".8" stroke-linecap="square" stroke-linejoin="round" fill="none" stroke="#d3d3d3" d="M373.58183 36V253.44"/>
</g>
<path transform="matrix(1,0,0,-1,0,288)" d="M373.58183 36V32.5"/>
<path transform="matrix(1,0,0,-1,0,288)" stroke-width=".8" stroke-linecap="butt" stroke-linejoin="round" fill="none" stroke="#000000" d="M373.58183 36V32.5"/>
<use data-text="4" xlink:href="#font_2_52" transform="matrix(13,0,0,-13,363.24589,268.875)"/>
<use data-text="." xlink:href="#font_2_46" transform="matrix(13,0,0,-13,371.5139,268.875)"/>
<use data-text="0" xlink:href="#font_2_48" transform="matrix(13,0,0,-13,375.6479,268.875)"/>
<use data-text="D" xlink:href="#font_2_68" transform="matrix(13,0,0,-13,171.42343,285.45314)"/>
<use data-text="e" xlink:href="#font_2_101" transform="matrix(13,0,0,-13,181.43343,285.45314)"/>
<use data-text="b" xlink:href="#font_2_98" transform="matrix(13,0,0,-13,189.42842,285.45314)"/>
<use data-text="a" xlink:href="#font_2_97" transform="matrix(13,0,0,-13,197.68343,285.45314)"/>
<use data-text="t" xlink:href="#font_2_116" transform="matrix(13,0,0,-13,205.65242,285.45314)"/>
<use data-text="e" xlink:href="#font_2_101" transform="matrix(13,0,0,-13,210.74842,285.45314)"/>
<use data-text=" " xlink:href="#font_2_32" transform="matrix(13,0,0,-13,218.74341,285.45314)"/>
<use data-text="R" xlink:href="#font_2_82" transform="matrix(13,0,0,-13,222.87741,285.45314)"/>
<use data-text="o" xlink:href="#font_2_111" transform="matrix(13,0,0,-13,231.91242,285.45314)"/>
<use data-text="u" xlink:href="#font_2_117" transform="matrix(13,0,0,-13,239.86841,285.45314)"/>
<use data-text="n" xlink:href="#font_2_110" transform="matrix(13,0,0,-13,248.11042,285.45314)"/>
<use data-text="d" xlink:href="#font_2_100" transform="matrix(13,0,0,-13,256.35243,285.45314)"/>
<use data-text="s" xlink:href="#font_2_115" transform="matrix(13,0,0,-13,264.60743,285.45314)"/>
<g clip-path="url(#clip_9)">
<path transform="matrix(1,0,0,-1,0,288)" stroke-width=".8" stroke-linecap="square" stroke-linejoin="round" fill="none" stroke="#d3d3d3" d="M54 61.6524H388.8"/>
</g>
<path transform="matrix(1,0,0,-1,0,288)" d="M54 61.6524H50.5"/>
<path transform="matrix(1,0,0,-1,0,288)" stroke-width=".8" stroke-linecap="butt" stroke-linejoin="round" fill="none" stroke="#000000" d="M54 61.6524H50.5"/>
<use data-text="6" xlink:href="#font_2_54" transform="matrix(13,0,0,-13,30.46875,231.2851)"/>
<use data-text="5" xlink:href="#font_2_53" transform="matrix(13,0,0,-13,38.73675,231.2851)"/>
<g clip-path="url(#clip_10)">
<path transform="matrix(1,0,0,-1,0,288)" stroke-width=".8" stroke-linecap="square" stroke-linejoin="round" fill="none" stroke="#d3d3d3" d="M54 89.810909H388.8"/>
</g>
<path transform="matrix(1,0,0,-1,0,288)" d="M54 89.810909H50.5"/>
<path transform="matrix(1,0,0,-1,0,288)" stroke-width=".8" stroke-linecap="butt" stroke-linejoin="round" fill="none" stroke="#000000" d="M54 89.810909H50.5"/>
<use data-text="7" xlink:href="#font_2_55" transform="matrix(13,0,0,-13,30.46875,203.12659)"/>
<use data-text="0" xlink:href="#font_2_48" transform="matrix(13,0,0,-13,38.73675,203.12659)"/>
<g clip-path="url(#clip_11)">
<path transform="matrix(1,0,0,-1,0,288)" stroke-width=".8" stroke-linecap="square" stroke-linejoin="round" fill="none" stroke="#d3d3d3" d="M54 117.96941H388.8"/>
</g>
<path transform="matrix(1,0,0,-1,0,288)" d="M54 117.96941H50.5"/>
<path transform="matrix(1,0,0,-1,0,288)" stroke-width=".8" stroke-linecap="butt" stroke-linejoin="round" fill="none" stroke="#000000" d="M54 117.96941H50.5"/>
<use data-text="7" xlink:href="#font_2_55" transform="matrix(13,0,0,-13,30.46875,174.96808)"/>
<use data-text="5" xlink:href="#font_2_53" transform="matrix(13,0,0,-13,38.73675,174.96808)"/>
<g clip-path="url(#clip_12)">
<path transform="matrix(1,0,0,-1,0,288)" stroke-width=".8" stroke-linecap="square" stroke-linejoin="round" fill="none" stroke="#d3d3d3" d="M54 146.12793H388.8"/>
</g>
<path transform="matrix(1,0,0,-1,0,288)" d="M54 146.12793H50.5"/>
<path transform="matrix(1,0,0,-1,0,288)" stroke-width=".8" stroke-linecap="butt" stroke-linejoin="round" fill="none" stroke="#000000" d="M54 146.12793H50.5"/>
<use data-text="8" xlink:href="#font_2_56" transform="matrix(13,0,0,-13,30.46875,146.80957)"/>
<use data-text="0" xlink:href="#font_2_48" transform="matrix(13,0,0,-13,38.73675,146.80957)"/>
<g clip-path="url(#clip_13)">
<path transform="matrix(1,0,0,-1,0,288)" stroke-width=".8" stroke-linecap="square" stroke-linejoin="round" fill="none" stroke="#d3d3d3" d="M54 174.28644H388.8"/>
</g>
<path transform="matrix(1,0,0,-1,0,288)" d="M54 174.28644H50.5"/>
<path transform="matrix(1,0,0,-1,0,288)" stroke-width=".8" stroke-linecap="butt" stroke-linejoin="round" fill="none" stroke="#000000" d="M54 174.28644H50.5"/>
<use data-text="8" xlink:href="#font_2_56" transform="matrix(13,0,0,-13,30.46875,118.65106)"/>
<use data-text="5" xlink:href="#font_2_53" transform="matrix(13,0,0,-13,38.73675,118.65106)"/>
<g clip-path="url(#clip_14)">
<path transform="matrix(1,0,0,-1,0,288)" stroke-width=".8" stroke-linecap="square" stroke-linejoin="round" fill="none" stroke="#d3d3d3" d="M54 202.44495H388.8"/>
</g>
<path transform="matrix(1,0,0,-1,0,288)" d="M54 202.44495H50.5"/>
<path transform="matrix(1,0,0,-1,0,288)" stroke-width=".8" stroke-linecap="butt" stroke-linejoin="round" fill="none" stroke="#000000" d="M54 202.44495H50.5"/>
<use data-text="9" xlink:href="#font_2_57" transform="matrix(13,0,0,-13,30.46875,90.49255)"/>
<use data-text="0" xlink:href="#font_2_48" transform="matrix(13,0,0,-13,38.73675,90.49255)"/>
<g clip-path="url(#clip_15)">
<path transform="matrix(1,0,0,-1,0,288)" stroke-width=".8" stroke-linecap="square" stroke-linejoin="round" fill="none" stroke="#d3d3d3" d="M54 230.60346H388.8"/>
</g>
<path transform="matrix(1,0,0,-1,0,288)" d="M54 230.60346H50.5"/>
<path transform="matrix(1,0,0,-1,0,288)" stroke-width=".8" stroke-linecap="butt" stroke-linejoin="round" fill="none" stroke="#000000" d="M54 230.60346H50.5"/>
<use data-text="9" xlink:href="#font_2_57" transform="matrix(13,0,0,-13,30.46875,62.334047)"/>
<use data-text="5" xlink:href="#font_2_53" transform="matrix(13,0,0,-13,38.73675,62.334047)"/>
<use data-text="C" xlink:href="#font_2_67" transform="matrix(0,-13,-13,-0,23.765625,178.31906)"/>
<use data-text="o" xlink:href="#font_2_111" transform="matrix(0,-13,-13,-0,23.765625,169.24506)"/>
<use data-text="n" xlink:href="#font_2_110" transform="matrix(0,-13,-13,-0,23.765625,161.28907)"/>
<use data-text="s" xlink:href="#font_2_115" transform="matrix(0,-13,-13,-0,23.765625,153.04706)"/>
<use data-text="e" xlink:href="#font_2_101" transform="matrix(0,-13,-13,-0,23.765625,146.27407)"/>
<use data-text="n" xlink:href="#font_2_110" transform="matrix(0,-13,-13,-0,23.765625,138.27907)"/>
<use data-text="s" xlink:href="#font_2_115" transform="matrix(0,-13,-13,-0,23.765625,130.03707)"/>
<use data-text="u" xlink:href="#font_2_117" transform="matrix(0,-13,-13,-0,23.765625,123.26407)"/>
<use data-text="s" xlink:href="#font_2_115" transform="matrix(0,-13,-13,-0,23.765625,115.022068)"/>
<g clip-path="url(#clip_16)">
<path transform="matrix(1,0,0,-1,0,288)" stroke-width="1.5" stroke-linecap="butt" stroke-dasharray="5.55,2.4" stroke-linejoin="round" fill="none" stroke="#008000" d="M69.218189 45.883638 170.67273 204.13445 272.12727 239.61417 373.58183 243.55637"/>
<g clip-path="url(#clip_17)">
<path transform="matrix(1,0,0,-1,69.218189,242.11637)" d="M0-3C.795609-3 1.55874-2.683901 2.12132-2.12132 2.683901-1.55874 3-.795609 3 0 3 .795609 2.683901 1.55874 2.12132 2.12132 1.55874 2.683901 .795609 3 0 3-.795609 3-1.55874 2.683901-2.12132 2.12132-2.683901 1.55874-3 .795609-3 0-3-.795609-2.683901-1.55874-2.12132-2.12132-1.55874-2.683901-.795609-3 0-3Z" fill="#008000"/>
<path transform="matrix(1,0,0,-1,69.218189,242.11637)" stroke-width="1" stroke-linecap="butt" stroke-linejoin="round" fill="none" stroke="#008000" d="M0-3C.795609-3 1.55874-2.683901 2.12132-2.12132 2.683901-1.55874 3-.795609 3 0 3 .795609 2.683901 1.55874 2.12132 2.12132 1.55874 2.683901 .795609 3 0 3-.795609 3-1.55874 2.683901-2.12132 2.12132-2.683901 1.55874-3 .795609-3 0-3-.795609-2.683901-1.55874-2.12132-2.12132-1.55874-2.683901-.795609-3 0-3Z"/>
</g>
<g clip-path="url(#clip_18)">
<path transform="matrix(1,0,0,-1,170.67273,83.865558)" d="M0-3C.795609-3 1.55874-2.683901 2.12132-2.12132 2.683901-1.55874 3-.795609 3 0 3 .795609 2.683901 1.55874 2.12132 2.12132 1.55874 2.683901 .795609 3 0 3-.795609 3-1.55874 2.683901-2.12132 2.12132-2.683901 1.55874-3 .795609-3 0-3-.795609-2.683901-1.55874-2.12132-2.12132-1.55874-2.683901-.795609-3 0-3Z" fill="#008000"/>
<path transform="matrix(1,0,0,-1,170.67273,83.865558)" stroke-width="1" stroke-linecap="butt" stroke-linejoin="round" fill="none" stroke="#008000" d="M0-3C.795609-3 1.55874-2.683901 2.12132-2.12132 2.683901-1.55874 3-.795609 3 0 3 .795609 2.683901 1.55874 2.12132 2.12132 1.55874 2.683901 .795609 3 0 3-.795609 3-1.55874 2.683901-2.12132 2.12132-2.683901 1.55874-3 .795609-3 0-3-.795609-2.683901-1.55874-2.12132-2.12132-1.55874-2.683901-.795609-3 0-3Z"/>
</g>
<g clip-path="url(#clip_19)">
<path transform="matrix(1,0,0,-1,272.12727,48.385835)" d="M0-3C.795609-3 1.55874-2.683901 2.12132-2.12132 2.683901-1.55874 3-.795609 3 0 3 .795609 2.683901 1.55874 2.12132 2.12132 1.55874 2.683901 .795609 3 0 3-.795609 3-1.55874 2.683901-2.12132 2.12132-2.683901 1.55874-3 .795609-3 0-3-.795609-2.683901-1.55874-2.12132-2.12132-1.55874-2.683901-.795609-3 0-3Z" fill="#008000"/>
<path transform="matrix(1,0,0,-1,272.12727,48.385835)" stroke-width="1" stroke-linecap="butt" stroke-linejoin="round" fill="none" stroke="#008000" d="M0-3C.795609-3 1.55874-2.683901 2.12132-2.12132 2.683901-1.55874 3-.795609 3 0 3 .795609 2.683901 1.55874 2.12132 2.12132 1.55874 2.683901 .795609 3 0 3-.795609 3-1.55874 2.683901-2.12132 2.12132-2.683901 1.55874-3 .795609-3 0-3-.795609-2.683901-1.55874-2.12132-2.12132-1.55874-2.683901-.795609-3 0-3Z"/>
</g>
<g clip-path="url(#clip_20)">
<path transform="matrix(1,0,0,-1,373.5818,44.44364)" d="M0-3C.795609-3 1.55874-2.683901 2.12132-2.12132 2.683901-1.55874 3-.795609 3 0 3 .795609 2.683901 1.55874 2.12132 2.12132 1.55874 2.683901 .795609 3 0 3-.795609 3-1.55874 2.683901-2.12132 2.12132-2.683901 1.55874-3 .795609-3 0-3-.795609-2.683901-1.55874-2.12132-2.12132-1.55874-2.683901-.795609-3 0-3Z" fill="#008000"/>
<path transform="matrix(1,0,0,-1,373.5818,44.44364)" stroke-width="1" stroke-linecap="butt" stroke-linejoin="round" fill="none" stroke="#008000" d="M0-3C.795609-3 1.55874-2.683901 2.12132-2.12132 2.683901-1.55874 3-.795609 3 0 3 .795609 2.683901 1.55874 2.12132 2.12132 1.55874 2.683901 .795609 3 0 3-.795609 3-1.55874 2.683901-2.12132 2.12132-2.683901 1.55874-3 .795609-3 0-3-.795609-2.683901-1.55874-2.12132-2.12132-1.55874-2.683901-.795609-3 0-3Z"/>
</g>
</g>
<g clip-path="url(#clip_21)">
<path transform="matrix(1,0,0,-1,0,288)" stroke-width="1.5" stroke-linecap="butt" stroke-dasharray="5.55,2.4" stroke-linejoin="round" fill="none" stroke="#0000ff" d="M69.218189 63.34191 170.67273 198.50275 272.12727 219.34004 373.58183 221.02956"/>
<g clip-path="url(#clip_22)">
<path transform="matrix(1,0,0,-1,69.218189,224.65808)" d="M0-3C.795609-3 1.55874-2.683901 2.12132-2.12132 2.683901-1.55874 3-.795609 3 0 3 .795609 2.683901 1.55874 2.12132 2.12132 1.55874 2.683901 .795609 3 0 3-.795609 3-1.55874 2.683901-2.12132 2.12132-2.683901 1.55874-3 .795609-3 0-3-.795609-2.683901-1.55874-2.12132-2.12132-1.55874-2.683901-.795609-3 0-3Z" fill="#0000ff"/>
<path transform="matrix(1,0,0,-1,69.218189,224.65808)" stroke-width="1" stroke-linecap="butt" stroke-linejoin="round" fill="none" stroke="#0000ff" d="M0-3C.795609-3 1.55874-2.683901 2.12132-2.12132 2.683901-1.55874 3-.795609 3 0 3 .795609 2.683901 1.55874 2.12132 2.12132 1.55874 2.683901 .795609 3 0 3-.795609 3-1.55874 2.683901-2.12132 2.12132-2.683901 1.55874-3 .795609-3 0-3-.795609-2.683901-1.55874-2.12132-2.12132-1.55874-2.683901-.795609-3 0-3Z"/>
</g>
<g clip-path="url(#clip_23)">
<path transform="matrix(1,0,0,-1,170.67273,89.49724)" d="M0-3C.795609-3 1.55874-2.683901 2.12132-2.12132 2.683901-1.55874 3-.795609 3 0 3 .795609 2.683901 1.55874 2.12132 2.12132 1.55874 2.683901 .795609 3 0 3-.795609 3-1.55874 2.683901-2.12132 2.12132-2.683901 1.55874-3 .795609-3 0-3-.795609-2.683901-1.55874-2.12132-2.12132-1.55874-2.683901-.795609-3 0-3Z" fill="#0000ff"/>
<path transform="matrix(1,0,0,-1,170.67273,89.49724)" stroke-width="1" stroke-linecap="butt" stroke-linejoin="round" fill="none" stroke="#0000ff" d="M0-3C.795609-3 1.55874-2.683901 2.12132-2.12132 2.683901-1.55874 3-.795609 3 0 3 .795609 2.683901 1.55874 2.12132 2.12132 1.55874 2.683901 .795609 3 0 3-.795609 3-1.55874 2.683901-2.12132 2.12132-2.683901 1.55874-3 .795609-3 0-3-.795609-2.683901-1.55874-2.12132-2.12132-1.55874-2.683901-.795609-3 0-3Z"/>
</g>
<g clip-path="url(#clip_24)">
<path transform="matrix(1,0,0,-1,272.12727,68.65994)" d="M0-3C.795609-3 1.55874-2.683901 2.12132-2.12132 2.683901-1.55874 3-.795609 3 0 3 .795609 2.683901 1.55874 2.12132 2.12132 1.55874 2.683901 .795609 3 0 3-.795609 3-1.55874 2.683901-2.12132 2.12132-2.683901 1.55874-3 .795609-3 0-3-.795609-2.683901-1.55874-2.12132-2.12132-1.55874-2.683901-.795609-3 0-3Z" fill="#0000ff"/>
<path transform="matrix(1,0,0,-1,272.12727,68.65994)" stroke-width="1" stroke-linecap="butt" stroke-linejoin="round" fill="none" stroke="#0000ff" d="M0-3C.795609-3 1.55874-2.683901 2.12132-2.12132 2.683901-1.55874 3-.795609 3 0 3 .795609 2.683901 1.55874 2.12132 2.12132 1.55874 2.683901 .795609 3 0 3-.795609 3-1.55874 2.683901-2.12132 2.12132-2.683901 1.55874-3 .795609-3 0-3-.795609-2.683901-1.55874-2.12132-2.12132-1.55874-2.683901-.795609-3 0-3Z"/>
</g>
<g clip-path="url(#clip_25)">
<path transform="matrix(1,0,0,-1,373.5818,66.97043)" d="M0-3C.795609-3 1.55874-2.683901 2.12132-2.12132 2.683901-1.55874 3-.795609 3 0 3 .795609 2.683901 1.55874 2.12132 2.12132 1.55874 2.683901 .795609 3 0 3-.795609 3-1.55874 2.683901-2.12132 2.12132-2.683901 1.55874-3 .795609-3 0-3-.795609-2.683901-1.55874-2.12132-2.12132-1.55874-2.683901-.795609-3 0-3Z" fill="#0000ff"/>
<path transform="matrix(1,0,0,-1,373.5818,66.97043)" stroke-width="1" stroke-linecap="butt" stroke-linejoin="round" fill="none" stroke="#0000ff" d="M0-3C.795609-3 1.55874-2.683901 2.12132-2.12132 2.683901-1.55874 3-.795609 3 0 3 .795609 2.683901 1.55874 2.12132 2.12132 1.55874 2.683901 .795609 3 0 3-.795609 3-1.55874 2.683901-2.12132 2.12132-2.683901 1.55874-3 .795609-3 0-3-.795609-2.683901-1.55874-2.12132-2.12132-1.55874-2.683901-.795609-3 0-3Z"/>
</g>
</g>
<path transform="matrix(1,0,0,-1,0,288)" stroke-width="1.5" stroke-linecap="square" stroke-miterlimit="10" stroke-linejoin="miter" fill="none" stroke="#000000" d="M54 36V253.44"/>
<path transform="matrix(1,0,0,-1,0,288)" stroke-width="1.5" stroke-linecap="square" stroke-miterlimit="10" stroke-linejoin="miter" fill="none" stroke="#000000" d="M388.8 36V253.44"/>
<path transform="matrix(1,0,0,-1,0,288)" stroke-width="1.5" stroke-linecap="square" stroke-miterlimit="10" stroke-linejoin="miter" fill="none" stroke="#000000" d="M54 36H388.8"/>
<path transform="matrix(1,0,0,-1,0,288)" stroke-width="1.5" stroke-linecap="square" stroke-miterlimit="10" stroke-linejoin="miter" fill="none" stroke="#000000" d="M54 253.44H388.8"/>
<use data-text="C" xlink:href="#font_2_67" transform="matrix(15.6,0,0,-15.6,56.65,28.559998)"/>
<use data-text="o" xlink:href="#font_2_111" transform="matrix(15.6,0,0,-15.6,67.5388,28.559998)"/>
<use data-text="n" xlink:href="#font_2_110" transform="matrix(15.6,0,0,-15.6,77.086009,28.559998)"/>
<use data-text="s" xlink:href="#font_2_115" transform="matrix(15.6,0,0,-15.6,86.97641,28.559998)"/>
<use data-text="e" xlink:href="#font_2_101" transform="matrix(15.6,0,0,-15.6,95.10401,28.559998)"/>
<use data-text="n" xlink:href="#font_2_110" transform="matrix(15.6,0,0,-15.6,104.69801,28.559998)"/>
<use data-text="s" xlink:href="#font_2_115" transform="matrix(15.6,0,0,-15.6,114.58841,28.559998)"/>
<use data-text="u" xlink:href="#font_2_117" transform="matrix(15.6,0,0,-15.6,122.71601,28.559998)"/>
<use data-text="s" xlink:href="#font_2_115" transform="matrix(15.6,0,0,-15.6,132.60642,28.559998)"/>
<use data-text=" " xlink:href="#font_2_32" transform="matrix(15.6,0,0,-15.6,140.73401,28.559998)"/>
<use data-text="v" xlink:href="#font_2_118" transform="matrix(15.6,0,0,-15.6,145.69481,28.559998)"/>
<use data-text="s" xlink:href="#font_2_115" transform="matrix(15.6,0,0,-15.6,154.93001,28.559998)"/>
<use data-text=" " xlink:href="#font_2_32" transform="matrix(15.6,0,0,-15.6,163.0576,28.559998)"/>
<use data-text="N" xlink:href="#font_2_78" transform="matrix(15.6,0,0,-15.6,168.0184,28.559998)"/>
<use data-text="u" xlink:href="#font_2_117" transform="matrix(15.6,0,0,-15.6,179.6872,28.559998)"/>
<use data-text="m" xlink:href="#font_2_109" transform="matrix(15.6,0,0,-15.6,189.57759,28.559998)"/>
<use data-text="b" xlink:href="#font_2_98" transform="matrix(15.6,0,0,-15.6,204.77199,28.559998)"/>
<use data-text="e" xlink:href="#font_2_101" transform="matrix(15.6,0,0,-15.6,214.678,28.559998)"/>
<use data-text="r" xlink:href="#font_2_114" transform="matrix(15.6,0,0,-15.6,224.27199,28.559998)"/>
<use data-text=" " xlink:href="#font_2_32" transform="matrix(15.6,0,0,-15.6,230.6836,28.559998)"/>
<use data-text="o" xlink:href="#font_2_111" transform="matrix(15.6,0,0,-15.6,235.6444,28.559998)"/>
<use data-text="f" xlink:href="#font_2_102" transform="matrix(15.6,0,0,-15.6,245.19159,28.559998)"/>
<use data-text=" " xlink:href="#font_2_32" transform="matrix(15.6,0,0,-15.6,250.68279,28.559998)"/>
<use data-text="D" xlink:href="#font_2_68" transform="matrix(15.6,0,0,-15.6,255.64359,28.559998)"/>
<use data-text="e" xlink:href="#font_2_101" transform="matrix(15.6,0,0,-15.6,267.65559,28.559998)"/>
<use data-text="b" xlink:href="#font_2_98" transform="matrix(15.6,0,0,-15.6,277.24958,28.559998)"/>
<use data-text="a" xlink:href="#font_2_97" transform="matrix(15.6,0,0,-15.6,287.15559,28.559998)"/>
<use data-text="t" xlink:href="#font_2_116" transform="matrix(15.6,0,0,-15.6,296.71839,28.559998)"/>
<use data-text="i" xlink:href="#font_2_105" transform="matrix(15.6,0,0,-15.6,302.8336,28.559998)"/>
<use data-text="n" xlink:href="#font_2_110" transform="matrix(15.6,0,0,-15.6,307.17039,28.559998)"/>
<use data-text="g" xlink:href="#font_2_103" transform="matrix(15.6,0,0,-15.6,317.0608,28.559998)"/>
<use data-text=" " xlink:href="#font_2_32" transform="matrix(15.6,0,0,-15.6,326.9668,28.559998)"/>
<use data-text="A" xlink:href="#font_2_65" transform="matrix(15.6,0,0,-15.6,331.9276,28.559998)"/>
<use data-text="g" xlink:href="#font_2_103" transform="matrix(15.6,0,0,-15.6,342.59803,28.559998)"/>
<use data-text="e" xlink:href="#font_2_101" transform="matrix(15.6,0,0,-15.6,352.50404,28.559998)"/>
<use data-text="n" xlink:href="#font_2_110" transform="matrix(15.6,0,0,-15.6,362.09803,28.559998)"/>
<use data-text="t" xlink:href="#font_2_116" transform="matrix(15.6,0,0,-15.6,371.98844,28.559998)"/>
<use data-text="s" xlink:href="#font_2_115" transform="matrix(15.6,0,0,-15.6,378.10365,28.559998)"/>
<g>
<path transform="matrix(1,0,0,-1,0,288)" d="M200.45938 42.5H379.7C381.43333 42.5 382.3 43.36667 382.3 45.1V81.95625C382.3 83.68958 381.43333 84.55625 379.7 84.55625H200.45938C198.72605 84.55625 197.85938 83.68958 197.85938 81.95625V45.1C197.85938 43.36667 198.72605 42.5 200.45938 42.5Z" fill="#ffffff" fill-opacity=".8"/>
<path transform="matrix(1,0,0,-1,0,288)" stroke-width="1" stroke-linecap="butt" stroke-miterlimit="10" stroke-linejoin="miter" fill="none" stroke="#cccccc" stroke-opacity=".8" d="M200.45938 42.5H379.7C381.43333 42.5 382.3 43.36667 382.3 45.1V81.95625C382.3 83.68958 381.43333 84.55625 379.7 84.55625H200.45938C198.72605 84.55625 197.85938 83.68958 197.85938 81.95625V45.1C197.85938 43.36667 198.72605 42.5 200.45938 42.5Z"/>
</g>
<path transform="matrix(1,0,0,-1,0,288)" stroke-width="1.5" stroke-linecap="butt" stroke-dasharray="5.55,2.4" stroke-linejoin="round" fill="none" stroke="#008000" d="M203.05937 74.03125H229.05937"/>
<path transform="matrix(1,0,0,-1,0,288)" d="M216.05937 71.03125C216.85498 71.03125 217.61812 71.34735 218.1807 71.90993 218.74327 72.47251 219.05937 73.23564 219.05937 74.03125 219.05937 74.82686 218.74327 75.58999 218.1807 76.15257 217.61812 76.71515 216.85498 77.03125 216.05937 77.03125 215.26377 77.03125 214.50064 76.71515 213.93805 76.15257 213.37548 75.58999 213.05937 74.82686 213.05937 74.03125 213.05937 73.23564 213.37548 72.47251 213.93805 71.90993 214.50064 71.34735 215.26377 71.03125 216.05937 71.03125Z" fill="#008000"/>
<path transform="matrix(1,0,0,-1,0,288)" stroke-width="1" stroke-linecap="butt" stroke-linejoin="round" fill="none" stroke="#008000" d="M216.05937 71.03125C216.85498 71.03125 217.61812 71.34735 218.1807 71.90993 218.74327 72.47251 219.05937 73.23564 219.05937 74.03125 219.05937 74.82686 218.74327 75.58999 218.1807 76.15257 217.61812 76.71515 216.85498 77.03125 216.05937 77.03125 215.26377 77.03125 214.50064 76.71515 213.93805 76.15257 213.37548 75.58999 213.05937 74.82686 213.05937 74.03125 213.05937 73.23564 213.37548 72.47251 213.93805 71.90993 214.50064 71.34735 215.26377 71.03125 216.05937 71.03125Z"/>
<use data-text="S" xlink:href="#font_2_83" transform="matrix(13,0,0,-13,239.45938,218.51876)"/>
<use data-text="h" xlink:href="#font_2_104" transform="matrix(13,0,0,-13,247.71439,218.51876)"/>
<use data-text="o" xlink:href="#font_2_111" transform="matrix(13,0,0,-13,255.95639,218.51876)"/>
<use data-text="r" xlink:href="#font_2_114" transform="matrix(13,0,0,-13,263.91239,218.51876)"/>
<use data-text="t" xlink:href="#font_2_116" transform="matrix(13,0,0,-13,269.25538,218.51876)"/>
<use data-text=" " xlink:href="#font_2_32" transform="matrix(13,0,0,-13,274.35139,218.51876)"/>
<use data-text="D" xlink:href="#font_2_68" transform="matrix(13,0,0,-13,278.48539,218.51876)"/>
<use data-text="e" xlink:href="#font_2_101" transform="matrix(13,0,0,-13,288.4954,218.51876)"/>
<use data-text="b" xlink:href="#font_2_98" transform="matrix(13,0,0,-13,296.4904,218.51876)"/>
<use data-text="a" xlink:href="#font_2_97" transform="matrix(13,0,0,-13,304.7454,218.51876)"/>
<use data-text="t" xlink:href="#font_2_116" transform="matrix(13,0,0,-13,312.7144,218.51876)"/>
<use data-text="e" xlink:href="#font_2_101" transform="matrix(13,0,0,-13,317.8104,218.51876)"/>
<use data-text=" " xlink:href="#font_2_32" transform="matrix(13,0,0,-13,325.8054,218.51876)"/>
<use data-text="P" xlink:href="#font_2_80" transform="matrix(13,0,0,-13,329.9394,218.51876)"/>
<use data-text="r" xlink:href="#font_2_114" transform="matrix(13,0,0,-13,337.77839,218.51876)"/>
<use data-text="o" xlink:href="#font_2_111" transform="matrix(13,0,0,-13,343.12138,218.51876)"/>
<use data-text="m" xlink:href="#font_2_109" transform="matrix(13,0,0,-13,351.07737,218.51876)"/>
<use data-text="p" xlink:href="#font_2_112" transform="matrix(13,0,0,-13,363.73936,218.51876)"/>
<use data-text="t" xlink:href="#font_2_116" transform="matrix(13,0,0,-13,371.99436,218.51876)"/>
<path transform="matrix(1,0,0,-1,0,288)" stroke-width="1.5" stroke-linecap="butt" stroke-dasharray="5.55,2.4" stroke-linejoin="round" fill="none" stroke="#0000ff" d="M203.05937 54.953126H229.05937"/>
<path transform="matrix(1,0,0,-1,0,288)" d="M216.05937 51.953126C216.85498 51.953126 217.61812 52.269224 218.1807 52.831808 218.74327 53.394388 219.05937 54.157518 219.05937 54.953126 219.05937 55.748735 218.74327 56.511865 218.1807 57.074445 217.61812 57.637029 216.85498 57.953126 216.05937 57.953126 215.26377 57.953126 214.50064 57.637029 213.93805 57.074445 213.37548 56.511865 213.05937 55.748735 213.05937 54.953126 213.05937 54.157518 213.37548 53.394388 213.93805 52.831808 214.50064 52.269224 215.26377 51.953126 216.05937 51.953126Z" fill="#0000ff"/>
<path transform="matrix(1,0,0,-1,0,288)" stroke-width="1" stroke-linecap="butt" stroke-linejoin="round" fill="none" stroke="#0000ff" d="M216.05937 51.953126C216.85498 51.953126 217.61812 52.269224 218.1807 52.831808 218.74327 53.394388 219.05937 54.157518 219.05937 54.953126 219.05937 55.748735 218.74327 56.511865 218.1807 57.074445 217.61812 57.637029 216.85498 57.953126 216.05937 57.953126 215.26377 57.953126 214.50064 57.637029 213.93805 57.074445 213.37548 56.511865 213.05937 55.748735 213.05937 54.953126 213.05937 54.157518 213.37548 53.394388 213.93805 52.831808 214.50064 52.269224 215.26377 51.953126 216.05937 51.953126Z"/>
<use data-text="L" xlink:href="#font_2_76" transform="matrix(13,0,0,-13,239.45938,237.59688)"/>
<use data-text="o" xlink:href="#font_2_111" transform="matrix(13,0,0,-13,246.70038,237.59688)"/>
<use data-text="n" xlink:href="#font_2_110" transform="matrix(13,0,0,-13,254.65637,237.59688)"/>
<use data-text="g" xlink:href="#font_2_103" transform="matrix(13,0,0,-13,262.89839,237.59688)"/>
<use data-text=" " xlink:href="#font_2_32" transform="matrix(13,0,0,-13,271.15339,237.59688)"/>
<use data-text="D" xlink:href="#font_2_68" transform="matrix(13,0,0,-13,275.28739,237.59688)"/>
<use data-text="e" xlink:href="#font_2_101" transform="matrix(13,0,0,-13,285.2974,237.59688)"/>
<use data-text="b" xlink:href="#font_2_98" transform="matrix(13,0,0,-13,293.2924,237.59688)"/>
<use data-text="a" xlink:href="#font_2_97" transform="matrix(13,0,0,-13,301.5474,237.59688)"/>
<use data-text="t" xlink:href="#font_2_116" transform="matrix(13,0,0,-13,309.5164,237.59688)"/>
<use data-text="e" xlink:href="#font_2_101" transform="matrix(13,0,0,-13,314.6124,237.59688)"/>
<use data-text=" " xlink:href="#font_2_32" transform="matrix(13,0,0,-13,322.6074,237.59688)"/>
<use data-text="P" xlink:href="#font_2_80" transform="matrix(13,0,0,-13,326.7414,237.59688)"/>
<use data-text="r" xlink:href="#font_2_114" transform="matrix(13,0,0,-13,334.58039,237.59688)"/>
<use data-text="o" xlink:href="#font_2_111" transform="matrix(13,0,0,-13,339.92338,237.59688)"/>
<use data-text="m" xlink:href="#font_2_109" transform="matrix(13,0,0,-13,347.87937,237.59688)"/>
<use data-text="p" xlink:href="#font_2_112" transform="matrix(13,0,0,-13,360.54136,237.59688)"/>
<use data-text="t" xlink:href="#font_2_116" transform="matrix(13,0,0,-13,368.79637,237.59688)"/>
</g>
</svg>
