<!-- talksmith-ascii-sha256: e9d77f1088b9569d5855edb4a68008c2e7243eed4b1dcf21c9a0eee8aad3b893 -->
<svg xmlns="http://www.w3.org/2000/svg" viewBox="0 0 720 530" font-family="Helvetica, Arial, sans-serif" font-size="15" fill="#3B3535">
<title>Un caso: cómo se descompone</title>
<desc>El supervisor reparte dos lecturas en paralelo, valida y deja la única escritura, la transferencia, sola y al final.</desc>
<defs>
<marker id="h" markerUnits="userSpaceOnUse" markerWidth="10" markerHeight="10" refX="10" refY="5" orient="auto"><path d="M0,0 L10,5 L0,10 z" fill="#3B3535"/></marker>
</defs>
<rect x="0" y="0" width="720" height="530" fill="#ffffff"/>
<g transform="translate(-40,0)">
<rect x="160" y="20" width="300" height="64" rx="8" fill="#F2EEEE" stroke="#D8D2CE" stroke-width="1.5"/>
<text x="310" y="46" text-anchor="middle" font-size="17" font-weight="bold" fill="#1F1E1E">Orquestador</text>
<text x="310" y="70" text-anchor="middle">descompone el pedido</text>
<g stroke="#3B3535" stroke-width="1.5" fill="none">
<path d="M310,84 V104 M170,104 H440"/>
<line x1="170" y1="104" x2="170" y2="150" marker-end="url(#h)"/>
<line x1="440" y1="104" x2="440" y2="150" marker-end="url(#h)"/>
</g>
<rect x="258" y="115" width="104" height="24" rx="12" fill="#F9D2D6"/>
<text x="310" y="132" text-anchor="middle" font-size="13" font-weight="bold" fill="#1F1E1E">en paralelo</text>
<rect x="60" y="150" width="220" height="96" rx="8" fill="#F2EEEE" stroke="#D8D2CE" stroke-width="1.5"/>
<text x="170" y="177" text-anchor="middle" font-size="17" font-weight="bold" fill="#1F1E1E">Loan Agent</text>
<text x="170" y="201" text-anchor="middle">cotiza saldo</text>
<rect x="145" y="213" width="50" height="22" rx="11" fill="#ffffff" stroke="#D8D2CE" stroke-width="1.2"/>
<text x="170" y="229" text-anchor="middle" font-size="13">lee</text>
<rect x="320" y="150" width="240" height="96" rx="8" fill="#F2EEEE" stroke="#D8D2CE" stroke-width="1.5"/>
<text x="440" y="177" text-anchor="middle" font-size="17" font-weight="bold" fill="#1F1E1E">Transaction Manager</text>
<text x="440" y="201" text-anchor="middle">verifica fondos</text>
<rect x="415" y="213" width="50" height="22" rx="11" fill="#ffffff" stroke="#D8D2CE" stroke-width="1.2"/>
<text x="440" y="229" text-anchor="middle" font-size="13">lee</text>
<g stroke="#3B3535" stroke-width="1.5" fill="none">
<path d="M170,246 V268 H440 V246"/>
<line x1="310" y1="268" x2="310" y2="300" marker-end="url(#h)"/>
<line x1="460" y1="332" x2="600" y2="332" marker-end="url(#h)"/>
<line x1="310" y1="364" x2="310" y2="414" marker-end="url(#h)"/>
</g>
<rect x="160" y="300" width="300" height="64" rx="8" fill="#F2EEEE" stroke="#D8D2CE" stroke-width="1.5"/>
<text x="310" y="326" text-anchor="middle" font-size="17" font-weight="bold" fill="#1F1E1E">Orquestador</text>
<text x="310" y="350" text-anchor="middle">valida saldo y cotización</text>
<text x="530" y="322" text-anchor="middle" font-size="14" font-style="italic">no cierra</text>
<rect x="600" y="310" width="140" height="44" rx="8" fill="#ffffff" stroke="#3B3535" stroke-width="1.5" stroke-dasharray="5 4"/>
<text x="670" y="337" text-anchor="middle">replanifica</text>
<text x="322" y="394" font-size="14" font-style="italic">cierra</text>
<rect x="160" y="414" width="300" height="96" rx="8" fill="#DA1B2E"/>
<text x="310" y="441" text-anchor="middle" font-size="17" font-weight="bold" fill="#ffffff">Payment Processor</text>
<text x="310" y="465" text-anchor="middle" fill="#ffffff">transfiere</text>
<rect x="273" y="477" width="74" height="22" rx="11" fill="#ffffff"/>
<text x="310" y="493" text-anchor="middle" font-size="13" font-weight="bold" fill="#DA1B2E">escribe</text>
</g>
</svg>
