<!-- talksmith-ascii-sha256: d05d0f4f8975a24c387334de616bfae7e3ee22096e3d93ab36835342cb586fc4 -->
<svg xmlns="http://www.w3.org/2000/svg" viewBox="0 0 500 354" font-family="Helvetica, Arial, sans-serif" font-size="14" fill="#3B3535">
<title>Red adaptativa</title>
<desc>Kore.ai llama Supervisor a la forma con un orquestador central; en la red adaptativa no hay nodo que coordine y el control pasa de agente en agente.</desc>
<defs>
<marker id="ah" markerUnits="userSpaceOnUse" markerWidth="12" markerHeight="12" viewBox="0 0 12 12" refX="12" refY="6" orient="auto">
<path d="M0,0 L12,6 L0,12 z" fill="#3B3535"/>
</marker>
<marker id="ahr" markerUnits="userSpaceOnUse" markerWidth="14" markerHeight="14" viewBox="0 0 14 14" refX="14" refY="7" orient="auto">
<path d="M0,0 L14,7 L0,14 z" fill="#DA1B2E"/>
</marker>
<marker id="ahrs" markerUnits="userSpaceOnUse" markerWidth="14" markerHeight="14" viewBox="0 0 14 14" refX="0" refY="7" orient="auto">
<path d="M14,0 L0,7 L14,14 z" fill="#DA1B2E"/>
</marker>
</defs>
<rect x="0" y="0" width="500" height="354" fill="#ffffff"/>
<rect x="190" y="20" width="120" height="32" rx="16" fill="#F2EEEE" stroke="#D8D2CE" stroke-width="1.5"/>
<text x="250" y="41" text-anchor="middle" font-size="15" font-weight="bold" fill="#1F1E1E">Usuario</text>
<line x1="250" y1="52" x2="250" y2="100" stroke="#3B3535" stroke-width="2" marker-end="url(#ah)"/>
<rect x="160" y="100" width="180" height="56" rx="10" fill="#F2EEEE" stroke="#D8D2CE" stroke-width="1.5"/>
<text x="250" y="134" text-anchor="middle" font-size="18" font-weight="bold" fill="#1F1E1E">Agente A</text>
<g stroke="#3B3535" stroke-width="2" fill="none" marker-end="url(#ah)">
<line x1="205" y1="156" x2="110" y2="226"/>
<line x1="295" y1="156" x2="390" y2="226"/>
</g>
<rect x="20" y="226" width="180" height="64" rx="10" fill="#F2EEEE" stroke="#D8D2CE" stroke-width="1.5"/>
<text x="110" y="264" text-anchor="middle" font-size="18" font-weight="bold" fill="#1F1E1E">Agente B</text>
<rect x="300" y="226" width="180" height="64" rx="10" fill="#F2EEEE" stroke="#D8D2CE" stroke-width="1.5"/>
<text x="390" y="264" text-anchor="middle" font-size="18" font-weight="bold" fill="#1F1E1E">Agente C</text>
<line x1="200" y1="258" x2="300" y2="258" stroke="#DA1B2E" stroke-width="3" marker-start="url(#ahrs)" marker-end="url(#ahr)"/>
<text x="250" y="330" text-anchor="middle" font-size="15" font-style="italic">cada agente ejecuta, delega o enriquece</text>
</svg>
